<svg xmlns="http://www.w3.org/2000/svg" xmlns:xlink="http://www.w3.org/1999/xlink" width="1920" zoomAndPan="magnify" viewBox="0 0 1440 809.999993" height="1080" preserveAspectRatio="xMidYMid meet" version="1.0"><defs><clipPath id="ae15e688a8"><path d="M 306.039062 799 L 1086 799 L 1086 806.199219 L 306.039062 806.199219 Z M 306.039062 799 " clip-rule="nonzero"/></clipPath><clipPath id="323179aa27"><path d="M 688 2.191406 L 903 2.191406 L 903 214 L 688 214 Z M 688 2.191406 " clip-rule="nonzero"/></clipPath></defs><path fill="#fff1a9" d="M 631.03125 803.933594 L 444.570312 803.378906 C 409.105469 673.960938 386.117188 555.464844 428.207031 493.828125 C 468.675781 480.105469 504.796875 477.5625 535.570312 488.796875 Z M 631.03125 803.933594 " fill-opacity="1" fill-rule="nonzero"/><path fill="#231f20" d="M 780.253906 398.433594 C 783.027344 383.152344 775.910156 365.117188 764.679688 354.394531 C 753.445312 343.671875 736.707031 339.0625 721.554688 342.523438 C 690.664062 325.847656 659.214844 342.179688 634.851562 362.445312 C 610.914062 382.351562 585.023438 391.710938 569.726562 421.785156 C 560.820312 439.277344 544.917969 454.496094 532.570312 469.546875 C 516.074219 489.664062 498.105469 510.273438 485.265625 533 C 466.773438 565.679688 470.691406 609.242188 480.429688 644.347656 C 486.085938 664.746094 500.84375 702.933594 528.945312 694.621094 C 539.785156 691.40625 549.984375 601.40625 558.082031 593.519531 C 585.664062 602.867188 610.46875 603.011719 636.328125 589.648438 C 662.199219 576.285156 682.253906 552.101562 690.597656 524.210938 C 696.46875 504.601562 715.261719 504.144531 732.34375 493.648438 C 729.132812 497.945312 725.902344 502.257812 722.71875 506.652344 C 719.949219 510.472656 717.097656 514.457031 716.292969 519.113281 C 715.503906 523.769531 718.457031 528.703125 722.867188 530.378906 C 708.375 542.132812 702.714844 564.171875 708.898438 581.78125 C 719.621094 576.582031 727.558594 565.644531 727.558594 553.726562 C 744.527344 543.707031 755.332031 520.539062 749.378906 501.75 C 759.105469 496.339844 765.910156 486.023438 767.074219 474.957031 C 768.089844 465.382812 765.1875 455.3125 768.238281 446.246094 C 784.175781 438.015625 789.160156 414.042969 780.253906 398.433594 Z M 767.613281 446.707031 C 767.628906 446.65625 767.644531 446.609375 767.664062 446.542969 C 767.710938 446.527344 767.746094 446.492188 767.777344 446.476562 C 767.726562 446.558594 767.679688 446.640625 767.613281 446.707031 Z M 767.613281 446.707031 " fill-opacity="1" fill-rule="nonzero"/><path fill="#ff914d" d="M 472.9375 786.851562 C 484.757812 768.175781 484.480469 746.925781 486.039062 722.820312 L 401.039062 722.820312 C 401.023438 722.9375 401.003906 723.035156 400.988281 723.148438 C 383.230469 725.183594 369.542969 737.578125 369.542969 752.628906 C 369.542969 768.730469 385.214844 781.816406 404.808594 782.375 C 405.285156 783.816406 405.777344 785.277344 406.335938 786.71875 C 406.398438 786.898438 406.515625 787.078125 406.582031 787.261719 C 384.460938 788.933594 369.542969 792.0625 369.542969 795.671875 C 369.542969 801.015625 402.367188 805.34375 442.847656 805.34375 C 483.347656 805.34375 516.15625 801.015625 516.15625 795.671875 C 516.191406 791.753906 498.433594 788.359375 472.9375 786.851562 Z M 379.148438 752.613281 C 379.148438 742.167969 388.085938 733.464844 400.054688 731.21875 C 398.660156 745.695312 399.023438 759.976562 402.546875 774.386719 C 389.347656 772.960938 379.148438 763.765625 379.148438 752.613281 Z M 379.148438 752.613281 " fill-opacity="1" fill-rule="nonzero"/><path fill="#ff914d" d="M 812.292969 602.765625 L 812.292969 789.769531 C 760.464844 802.195312 704.601562 804.082031 658.527344 803.179688 L 658.789062 803.378906 L 535.539062 803.933594 L 543.492188 771.617188 C 523.160156 757.648438 504.613281 740.660156 505.304688 725.542969 C 513.796875 542.3125 579.875 520.71875 660.199219 514.175781 L 729.148438 523.359375 C 763.777344 541.394531 794.289062 564.449219 812.292969 602.765625 Z M 812.292969 602.765625 " fill-opacity="1" fill-rule="nonzero"/><path fill="#f3bfa4" d="M 719.71875 514.175781 L 723.492188 532.871094 L 686.335938 597.09375 L 645.410156 525.308594 L 651.085938 481.859375 C 651.085938 478.5 650.199219 473.742188 650.199219 470.382812 C 643.230469 468.367188 637.476562 463.003906 634.292969 456.476562 C 631.113281 449.96875 630.390625 442.410156 631.492188 435.246094 C 632.144531 431.03125 633.457031 426.816406 636.03125 423.421875 C 638.605469 420.027344 642.589844 417.519531 646.855469 417.4375 C 651.117188 417.355469 661.9375 427.40625 663.101562 431.507812 C 664.152344 429.195312 719.34375 423.71875 735.363281 402.566406 C 736.34375 410.09375 743.378906 426.816406 750.660156 428.949219 C 749.757812 459.070312 737.804688 490.074219 719.71875 514.175781 Z M 719.71875 514.175781 " fill-opacity="1" fill-rule="nonzero"/><g clip-path="url(#ae15e688a8)"><path fill="#00a5cf" d="M 306.039062 799.6875 L 1085.246094 799.6875 L 1085.246094 806.296875 L 306.039062 806.296875 Z M 306.039062 799.6875 " fill-opacity="1" fill-rule="nonzero"/></g><path fill="#00a5cf" d="M 705.554688 803 L 773.84375 593.570312 C 775.335938 588.976562 779.746094 585.960938 784.582031 586.222656 L 1120.761719 604.800781 C 1127.957031 605.195312 1132.695312 612.472656 1130.15625 619.230469 L 1060.683594 803 Z M 705.554688 803 " fill-opacity="1" fill-rule="nonzero"/><path fill="#00a5cf" d="M 756.875 800.476562 L 612.996094 803 L 612.996094 766.15625 L 781.109375 764.273438 Z M 756.875 800.476562 " fill-opacity="1" fill-rule="nonzero"/><path fill="#00a5cf" d="M 486.039062 722.820312 C 486.039062 731.316406 467 738.183594 443.539062 738.183594 C 420.074219 738.183594 401.039062 731.300781 401.039062 722.820312 C 401.039062 714.34375 420.074219 707.457031 443.539062 707.457031 C 467 707.457031 486.039062 714.328125 486.039062 722.820312 Z M 486.039062 722.820312 " fill-opacity="1" fill-rule="nonzero"/><path fill="#fff1a9" d="M 696.453125 770.894531 L 695.863281 772.78125 L 695.386719 770.863281 C 690.910156 752.566406 670.316406 714.199219 670.121094 713.820312 L 670.003906 713.589844 L 670.105469 713.359375 C 670.203125 713.113281 679.664062 688.488281 682.039062 673.714844 C 673.449219 665.648438 571.332031 550.789062 566.953125 545.855469 L 567.773438 545.117188 C 568.855469 546.332031 676.253906 667.125 682.992188 673.089844 L 683.222656 673.289062 L 683.171875 673.582031 C 680.992188 687.667969 672.21875 710.917969 671.234375 713.523438 C 672.875 716.609375 690.863281 750.484375 695.992188 768.75 C 715.40625 705.328125 707.273438 635.363281 674.121094 581.1875 L 675.054688 580.617188 C 708.667969 635.542969 716.6875 706.6875 696.453125 770.894531 Z M 758.644531 545.660156 L 757.613281 545.265625 L 712.914062 664.875 L 712.816406 665.15625 L 733.902344 694.652344 L 702.242188 764.042969 L 703.242188 764.5 L 735.035156 694.832031 L 735.164062 694.539062 L 714.0625 665.007812 Z M 506.84375 732.527344 L 505.859375 733.035156 C 518.617188 757.582031 560.804688 788.324219 588.597656 798.410156 L 588.972656 797.375 C 561.378906 787.375 519.488281 756.859375 506.84375 732.527344 Z M 600.945312 651.203125 L 599.976562 650.660156 C 593.089844 662.875 587.21875 675.796875 582.546875 689.0625 L 558.214844 679.289062 L 557.804688 680.304688 L 640.179688 713.394531 L 640.589844 712.378906 L 583.5625 689.472656 C 588.238281 676.238281 594.074219 663.367188 600.945312 651.203125 Z M 600.945312 651.203125 " fill-opacity="1" fill-rule="nonzero"/><path fill="#00a5cf" d="M 427.222656 643.085938 C 414.253906 654.859375 427.027344 670.566406 430.503906 683.832031 C 431.796875 688.863281 432.011719 694.6875 429.4375 699.261719 C 431.242188 686.011719 421.140625 676.140625 418.515625 663.664062 C 416.730469 656.136719 419.140625 645.773438 427.222656 643.085938 Z M 445.472656 612.328125 C 440.09375 620.066406 434.914062 630.820312 439.355469 640.445312 C 442.0625 646.300781 447.046875 650.25 447.914062 656.515625 C 449.242188 665.613281 444.667969 675.4375 447.507812 684.550781 C 447.40625 674.746094 453 666.007812 452.046875 655.972656 C 451.671875 652.546875 450.164062 649.085938 448.226562 646.300781 C 438.046875 634.378906 440.785156 626.164062 445.472656 612.328125 Z M 468.855469 656.808594 C 462.65625 658.746094 458.671875 665.976562 459.261719 672.484375 C 459.542969 678.929688 465.097656 683.09375 465.984375 689.191406 C 466.640625 692.847656 466.363281 696.882812 466.460938 701.015625 C 468.148438 697.277344 469.460938 693.292969 469.410156 688.882812 C 469.59375 684.667969 467.101562 680.304688 465.148438 676.929688 C 461.410156 670.238281 463.296875 662.15625 468.855469 656.808594 Z M 468.855469 656.808594 " fill-opacity="1" fill-rule="nonzero"/><path fill="#00a5cf" d="M 965.371094 368.101562 C 964.238281 364.609375 963.371094 361.9375 962.238281 358.445312 L 964.402344 350.03125 C 960.910156 345.230469 959.320312 343.03125 955.8125 338.226562 L 947.15625 337.6875 C 944.1875 335.523438 941.90625 333.867188 938.921875 331.703125 L 935.742188 323.632812 C 930.085938 321.796875 927.511719 320.960938 921.855469 319.125 L 914.542969 323.78125 C 910.871094 323.78125 908.050781 323.78125 904.375 323.78125 L 897.0625 319.125 C 891.40625 320.960938 888.832031 321.796875 883.175781 323.632812 L 879.996094 331.703125 C 877.027344 333.867188 874.746094 335.523438 871.765625 337.6875 L 863.105469 338.226562 C 859.613281 343.03125 858.023438 345.230469 854.515625 350.03125 L 856.679688 358.445312 C 855.546875 361.9375 854.679688 364.609375 853.546875 368.101562 L 846.859375 373.628906 C 846.859375 379.578125 846.859375 382.285156 846.859375 388.21875 L 853.546875 393.746094 C 854.679688 397.238281 855.546875 399.910156 856.679688 403.402344 L 854.515625 411.8125 C 858.007812 416.617188 859.597656 418.816406 863.105469 423.621094 L 871.765625 424.160156 C 874.730469 426.324219 877.011719 427.980469 879.996094 430.144531 L 883.175781 438.210938 C 888.832031 440.050781 891.40625 440.886719 897.0625 442.722656 L 904.375 438.066406 C 908.050781 438.066406 910.871094 438.066406 914.542969 438.066406 L 921.855469 442.722656 C 927.511719 440.886719 930.085938 440.050781 935.742188 438.210938 L 938.921875 430.144531 C 941.890625 427.980469 944.171875 426.324219 947.15625 424.160156 L 955.8125 423.621094 C 959.304688 418.816406 960.894531 416.617188 964.402344 411.8125 L 962.238281 403.402344 C 963.371094 399.910156 964.238281 397.238281 965.371094 393.746094 L 972.0625 388.21875 C 972.0625 382.269531 972.0625 379.5625 972.0625 373.628906 Z M 909.460938 414.355469 C 890.996094 414.355469 876.027344 399.386719 876.027344 380.921875 C 876.027344 362.460938 890.996094 347.492188 909.460938 347.492188 C 927.921875 347.492188 942.890625 362.460938 942.890625 380.921875 C 942.890625 399.386719 927.921875 414.355469 909.460938 414.355469 Z M 909.460938 414.355469 " fill-opacity="1" fill-rule="nonzero"/><g clip-path="url(#323179aa27)"><path fill="#ff914d" d="M 891.554688 86.015625 C 889.621094 80.050781 888.128906 75.457031 886.191406 69.488281 L 889.898438 55.09375 C 883.914062 46.863281 881.191406 43.125 875.207031 34.894531 L 860.382812 33.976562 C 855.300781 30.269531 851.398438 27.449219 846.316406 23.742188 L 840.890625 9.953125 C 831.199219 6.804688 826.804688 5.378906 817.113281 2.230469 L 804.605469 10.199219 C 798.308594 10.199219 793.488281 10.199219 787.191406 10.199219 L 774.664062 2.230469 C 764.972656 5.378906 760.578125 6.804688 750.890625 9.953125 L 745.460938 23.742188 C 740.378906 27.449219 736.476562 30.269531 731.394531 33.976562 L 716.570312 34.894531 C 710.585938 43.125 707.863281 46.863281 701.878906 55.09375 L 705.585938 69.488281 C 703.652344 75.457031 702.160156 80.050781 700.222656 86.015625 L 688.761719 95.476562 C 688.761719 105.644531 688.761719 110.285156 688.761719 120.449219 L 700.222656 129.910156 C 702.160156 135.878906 703.652344 140.46875 705.585938 146.4375 L 701.878906 160.835938 C 707.863281 169.066406 710.585938 172.804688 716.570312 181.035156 L 731.394531 181.953125 C 736.476562 185.660156 740.378906 188.480469 745.460938 192.183594 L 750.890625 205.972656 C 760.578125 209.121094 764.972656 210.546875 774.664062 213.695312 L 787.175781 205.726562 C 793.472656 205.726562 798.292969 205.726562 804.585938 205.726562 L 817.097656 213.695312 C 826.789062 210.546875 831.183594 209.121094 840.871094 205.972656 L 846.300781 192.183594 C 851.382812 188.480469 855.285156 185.660156 860.367188 181.953125 L 875.191406 181.035156 C 881.175781 172.804688 883.898438 169.066406 889.882812 160.835938 L 886.175781 146.4375 C 888.109375 140.46875 889.601562 135.878906 891.539062 129.910156 L 903 120.449219 C 903 110.285156 903 105.644531 903 95.476562 Z M 795.882812 165.179688 C 764.285156 165.179688 738.675781 139.566406 738.675781 107.972656 C 738.675781 76.375 764.285156 50.765625 795.882812 50.765625 C 827.476562 50.765625 853.089844 76.375 853.089844 107.972656 C 853.089844 139.566406 827.476562 165.179688 795.882812 165.179688 Z M 795.882812 165.179688 " fill-opacity="1" fill-rule="nonzero"/></g><path fill="#fff1a9" d="M 1084.34375 402.566406 L 913.082031 402.566406 C 906.441406 402.566406 901.082031 397.1875 901.082031 390.566406 L 901.082031 269.265625 C 901.082031 262.625 906.457031 257.261719 913.082031 257.261719 L 1084.34375 257.261719 C 1090.984375 257.261719 1096.34375 262.640625 1096.34375 269.265625 L 1096.34375 390.566406 C 1096.363281 397.1875 1090.984375 402.566406 1084.34375 402.566406 Z M 1084.34375 402.566406 " fill-opacity="1" fill-rule="nonzero"/><path fill="#ff914d" d="M 998.132812 247.503906 C 997.558594 245.769531 997.128906 244.421875 996.558594 242.667969 L 997.640625 238.472656 C 995.882812 236.0625 995.097656 234.980469 993.34375 232.570312 L 989.015625 232.304688 C 987.523438 231.222656 986.390625 230.40625 984.898438 229.320312 L 983.308594 225.289062 C 980.472656 224.371094 979.191406 223.945312 976.355469 223.027344 L 972.699219 225.355469 C 970.863281 225.355469 969.453125 225.355469 967.617188 225.355469 L 963.960938 223.027344 C 961.125 223.945312 959.84375 224.371094 957.007812 225.289062 L 955.417969 229.320312 C 953.925781 230.40625 952.792969 231.222656 951.304688 232.304688 L 946.972656 232.570312 C 945.21875 234.980469 944.433594 236.0625 942.679688 238.472656 L 943.761719 242.667969 C 943.1875 244.40625 942.761719 245.75 942.1875 247.503906 L 938.839844 250.277344 C 938.839844 253.246094 938.839844 254.605469 938.839844 257.574219 L 942.1875 260.34375 C 942.761719 262.082031 943.1875 263.425781 943.761719 265.179688 L 942.679688 269.378906 C 944.433594 271.789062 945.21875 272.871094 946.972656 275.28125 L 951.304688 275.542969 C 952.792969 276.625 953.925781 277.445312 955.417969 278.527344 L 957.007812 282.5625 C 959.84375 283.480469 961.125 283.90625 963.960938 284.824219 L 967.617188 282.496094 C 969.453125 282.496094 970.863281 282.496094 972.699219 282.496094 L 976.355469 284.824219 C 979.191406 283.90625 980.472656 283.480469 983.308594 282.5625 L 984.898438 278.527344 C 986.390625 277.445312 987.523438 276.625 989.015625 275.542969 L 993.34375 275.28125 C 995.097656 272.871094 995.882812 271.789062 997.640625 269.378906 L 996.558594 265.179688 C 997.128906 263.441406 997.558594 262.097656 998.132812 260.34375 L 1001.476562 257.574219 C 1001.476562 254.605469 1001.476562 253.246094 1001.476562 250.277344 Z M 970.160156 270.640625 C 960.925781 270.640625 953.433594 263.164062 953.433594 253.917969 C 953.433594 244.6875 960.910156 237.191406 970.160156 237.191406 C 979.390625 237.191406 986.882812 244.667969 986.882812 253.917969 C 986.882812 263.164062 979.40625 270.640625 970.160156 270.640625 Z M 970.160156 270.640625 " fill-opacity="1" fill-rule="nonzero"/><path fill="#00a5cf" d="M 1074.914062 396.730469 L 920.003906 396.730469 L 920.003906 277.527344 L 924.414062 277.527344 L 924.414062 392.320312 L 1074.914062 392.320312 Z M 1074.914062 396.730469 " fill-opacity="1" fill-rule="nonzero"/><path fill="#ff914d" d="M 952.039062 390.875 L 935.070312 390.875 L 935.070312 342.195312 L 952.039062 342.195312 Z M 980.554688 316.664062 L 963.582031 316.664062 L 963.582031 390.875 L 980.554688 390.875 Z M 1009.082031 295.644531 L 992.113281 295.644531 L 992.113281 390.875 L 1009.082031 390.875 Z M 1037.613281 278.824219 L 1020.644531 278.824219 L 1020.644531 390.875 L 1037.613281 390.875 Z M 1066.144531 265.28125 L 1049.171875 265.28125 L 1049.171875 390.859375 L 1066.144531 390.859375 Z M 1066.144531 265.28125 " fill-opacity="1" fill-rule="nonzero"/><path fill="#fff1a9" d="M 416.023438 74.246094 L 822.199219 74.246094 L 822.199219 286.039062 L 416.023438 286.039062 Z M 416.023438 74.246094 " fill-opacity="1" fill-rule="nonzero"/><path fill="#00a5cf" d="M 515.714844 211.054688 L 456.246094 197.628906 L 457.210938 193.332031 L 514.863281 206.351562 L 587.238281 159.441406 L 660.316406 175.246094 L 716.261719 134.519531 L 752.644531 144.226562 L 787.371094 94.101562 L 790.996094 96.609375 L 754.496094 149.273438 L 717.144531 139.304688 L 661.300781 179.953125 L 588.074219 164.113281 Z M 515.714844 211.054688 " fill-opacity="1" fill-rule="nonzero"/><path fill="#fff1a9" d="M 519.929688 206.808594 C 519.929688 209.726562 517.566406 212.089844 514.648438 212.089844 C 511.730469 212.089844 509.371094 209.726562 509.371094 206.808594 C 509.371094 203.890625 511.730469 201.53125 514.648438 201.53125 C 517.566406 201.53125 519.929688 203.890625 519.929688 206.808594 Z M 458.621094 190.988281 C 455.703125 190.988281 453.34375 193.347656 453.34375 196.265625 C 453.34375 199.183594 455.703125 201.546875 458.621094 201.546875 C 461.542969 201.546875 463.902344 199.183594 463.902344 196.265625 C 463.902344 193.347656 461.542969 190.988281 458.621094 190.988281 Z M 587.664062 158.097656 C 584.746094 158.097656 582.382812 160.457031 582.382812 163.375 C 582.382812 166.292969 584.746094 168.65625 587.664062 168.65625 C 590.582031 168.65625 592.941406 166.292969 592.941406 163.375 C 592.941406 160.457031 590.582031 158.097656 587.664062 158.097656 Z M 660.824219 172.328125 C 657.90625 172.328125 655.542969 174.6875 655.542969 177.609375 C 655.542969 180.527344 657.90625 182.886719 660.824219 182.886719 C 663.742188 182.886719 666.101562 180.527344 666.101562 177.609375 C 666.101562 174.6875 663.742188 172.328125 660.824219 172.328125 Z M 716.71875 133.683594 C 713.800781 133.683594 711.4375 136.042969 711.4375 138.960938 C 711.4375 141.878906 713.800781 144.242188 716.71875 144.242188 C 719.636719 144.242188 722 141.878906 722 138.960938 C 721.980469 136.042969 719.621094 133.683594 716.71875 133.683594 Z M 753.578125 141.488281 C 750.660156 141.488281 748.296875 143.847656 748.296875 146.765625 C 748.296875 149.683594 750.660156 152.046875 753.578125 152.046875 C 756.496094 152.046875 758.859375 149.683594 758.859375 146.765625 C 758.859375 143.847656 756.496094 141.488281 753.578125 141.488281 Z M 788.566406 91.429688 C 785.648438 91.429688 783.289062 93.789062 783.289062 96.707031 C 783.289062 99.625 785.648438 101.988281 788.566406 101.988281 C 791.488281 101.988281 793.847656 99.625 793.847656 96.707031 C 793.847656 93.789062 791.46875 91.429688 788.566406 91.429688 Z M 788.566406 91.429688 " fill-opacity="1" fill-rule="nonzero"/><path fill="#ff914d" d="M 514.664062 212.628906 C 511.453125 212.628906 508.84375 210.023438 508.84375 206.808594 C 508.84375 203.597656 511.453125 200.988281 514.664062 200.988281 C 517.878906 200.988281 520.488281 203.597656 520.488281 206.808594 C 520.488281 210.023438 517.878906 212.628906 514.664062 212.628906 Z M 514.664062 202.085938 C 512.058594 202.085938 509.945312 204.203125 509.945312 206.808594 C 509.945312 209.417969 512.058594 211.53125 514.664062 211.53125 C 517.273438 211.53125 519.386719 209.417969 519.386719 206.808594 C 519.386719 204.203125 517.273438 202.085938 514.664062 202.085938 Z M 458.621094 202.085938 C 455.410156 202.085938 452.800781 199.480469 452.800781 196.265625 C 452.800781 193.054688 455.410156 190.445312 458.621094 190.445312 C 461.835938 190.445312 464.445312 193.054688 464.445312 196.265625 C 464.445312 199.480469 461.835938 202.085938 458.621094 202.085938 Z M 458.621094 191.542969 C 456.015625 191.542969 453.902344 193.660156 453.902344 196.265625 C 453.902344 198.875 456.015625 200.988281 458.621094 200.988281 C 461.230469 200.988281 463.34375 198.875 463.34375 196.265625 C 463.34375 193.660156 461.230469 191.542969 458.621094 191.542969 Z M 587.664062 169.179688 C 584.449219 169.179688 581.84375 166.574219 581.84375 163.359375 C 581.84375 160.144531 584.449219 157.539062 587.664062 157.539062 C 590.875 157.539062 593.484375 160.144531 593.484375 163.359375 C 593.484375 166.574219 590.875 169.179688 587.664062 169.179688 Z M 587.664062 158.636719 C 585.054688 158.636719 582.941406 160.753906 582.941406 163.359375 C 582.941406 165.964844 585.054688 168.082031 587.664062 168.082031 C 590.269531 168.082031 592.386719 165.964844 592.386719 163.359375 C 592.386719 160.753906 590.269531 158.636719 587.664062 158.636719 Z M 660.824219 183.429688 C 657.609375 183.429688 655.003906 180.820312 655.003906 177.609375 C 655.003906 174.394531 657.609375 171.785156 660.824219 171.785156 C 664.039062 171.785156 666.644531 174.394531 666.644531 177.609375 C 666.644531 180.820312 664.039062 183.429688 660.824219 183.429688 Z M 660.824219 172.886719 C 658.214844 172.886719 656.101562 175 656.101562 177.609375 C 656.101562 180.214844 658.214844 182.328125 660.824219 182.328125 C 663.429688 182.328125 665.546875 180.214844 665.546875 177.609375 C 665.546875 175 663.429688 172.886719 660.824219 172.886719 Z M 716.71875 144.78125 C 713.503906 144.78125 710.898438 142.175781 710.898438 138.960938 C 710.898438 135.746094 713.503906 133.140625 716.71875 133.140625 C 719.933594 133.140625 722.539062 135.746094 722.539062 138.960938 C 722.539062 142.175781 719.933594 144.78125 716.71875 144.78125 Z M 716.71875 134.238281 C 714.113281 134.238281 711.996094 136.355469 711.996094 138.960938 C 711.996094 141.570312 714.113281 143.683594 716.71875 143.683594 C 719.324219 143.683594 721.441406 141.570312 721.441406 138.960938 C 721.441406 136.355469 719.308594 134.238281 716.71875 134.238281 Z M 753.578125 152.585938 C 750.363281 152.585938 747.757812 149.980469 747.757812 146.765625 C 747.757812 143.550781 750.363281 140.945312 753.578125 140.945312 C 756.792969 140.945312 759.398438 143.550781 759.398438 146.765625 C 759.414062 149.964844 756.792969 152.585938 753.578125 152.585938 Z M 753.578125 142.027344 C 750.972656 142.027344 748.855469 144.144531 748.855469 146.75 C 748.855469 149.355469 750.972656 151.472656 753.578125 151.472656 C 756.183594 151.472656 758.300781 149.355469 758.300781 146.75 C 758.300781 144.160156 756.183594 142.027344 753.578125 142.027344 Z M 788.566406 102.527344 C 785.355469 102.527344 782.746094 99.921875 782.746094 96.707031 C 782.746094 93.492188 785.355469 90.886719 788.566406 90.886719 C 791.78125 90.886719 794.390625 93.492188 794.390625 96.707031 C 794.390625 99.90625 791.78125 102.527344 788.566406 102.527344 Z M 788.566406 91.96875 C 785.960938 91.96875 783.847656 94.085938 783.847656 96.691406 C 783.847656 99.296875 785.960938 101.414062 788.566406 101.414062 C 791.175781 101.414062 793.289062 99.296875 793.289062 96.691406 C 793.289062 94.085938 791.175781 91.96875 788.566406 91.96875 Z M 788.566406 91.96875 " fill-opacity="1" fill-rule="nonzero"/><path fill="#ff914d" d="M 464.050781 265.28125 L 453.195312 265.28125 L 453.195312 230.75 L 464.050781 230.75 Z M 482.496094 234.816406 L 471.640625 234.816406 L 471.640625 264.625 L 482.496094 264.625 Z M 500.925781 234.816406 L 490.070312 234.816406 L 490.070312 264.625 L 500.925781 264.625 Z M 537.800781 233.109375 L 526.945312 233.109375 L 526.945312 262.917969 L 537.800781 262.917969 Z M 556.230469 217.058594 L 545.375 217.058594 L 545.375 262.917969 L 556.230469 262.917969 Z M 574.660156 204.941406 L 563.804688 204.941406 L 563.804688 262.933594 L 574.660156 262.933594 Z M 519.355469 239.488281 L 508.5 239.488281 L 508.5 265.28125 L 519.355469 265.28125 Z M 629.964844 200.757812 L 619.109375 200.757812 L 619.109375 262.605469 L 629.964844 262.605469 Z M 648.410156 204.941406 L 637.558594 204.941406 L 637.558594 262.625 L 648.410156 262.625 Z M 611.535156 196.039062 L 600.679688 196.039062 L 600.679688 264.96875 L 611.535156 264.96875 Z M 703.714844 181.953125 L 692.863281 181.953125 L 692.863281 263.804688 L 703.714844 263.804688 Z M 685.269531 197.21875 L 674.417969 197.21875 L 674.417969 266.148438 L 685.269531 266.148438 Z M 740.574219 169.835938 L 729.722656 169.835938 L 729.722656 266.164062 L 740.574219 266.164062 Z M 777.453125 156.605469 L 766.597656 156.605469 L 766.597656 265.902344 L 777.453125 265.902344 Z M 593.105469 192.9375 L 582.25 192.9375 L 582.25 264.769531 L 593.105469 264.769531 Z M 666.839844 209.5 L 655.988281 209.5 L 655.988281 266.671875 L 666.839844 266.671875 Z M 722.144531 168.804688 L 711.292969 168.804688 L 711.292969 266.671875 L 722.144531 266.671875 Z M 759.023438 176.445312 L 748.167969 176.445312 L 748.167969 265.609375 L 759.023438 265.609375 Z M 795.882812 128.269531 L 785.027344 128.269531 L 785.027344 263.851562 L 795.882812 263.851562 Z M 795.882812 128.269531 " fill-opacity="1" fill-rule="nonzero"/><path fill="#00a5cf" d="M 804.785156 267.492188 L 439.882812 267.492188 L 439.882812 90.492188 L 444.292969 90.492188 L 444.292969 263.082031 L 804.769531 263.082031 L 804.769531 267.492188 Z M 471.625 99.003906 C 468.625 99.003906 466.199219 101.429688 466.199219 104.429688 C 466.199219 107.429688 468.625 109.859375 471.625 109.859375 C 474.625 109.859375 477.050781 107.429688 477.050781 104.429688 C 477.050781 101.429688 474.625 99.003906 471.625 99.003906 Z M 472.804688 128.746094 C 469.804688 128.746094 467.378906 131.171875 467.378906 134.171875 C 467.378906 137.175781 469.804688 139.601562 472.804688 139.601562 C 475.804688 139.601562 478.234375 137.175781 478.234375 134.171875 C 478.234375 131.171875 475.804688 128.746094 472.804688 128.746094 Z M 576.675781 105.757812 L 493.089844 105.757812 L 493.089844 110.167969 L 576.675781 110.167969 Z M 576.675781 131.976562 L 493.089844 131.976562 L 493.089844 136.386719 L 576.675781 136.386719 Z M 576.675781 131.976562 " fill-opacity="1" fill-rule="nonzero"/><path fill="#231f20" d="M 695.175781 439.96875 C 697.320312 438.574219 699.304688 441.738281 699.585938 443.605469 C 699.914062 445.886719 699.058594 448.132812 698.222656 450.28125 C 697.914062 451.082031 697.585938 451.886719 697.027344 452.542969 C 696.46875 453.199219 695.632812 453.675781 694.78125 453.574219 C 693.683594 453.445312 692.878906 452.410156 692.664062 451.328125 C 692.453125 450.246094 692.699219 449.132812 692.945312 448.050781 C 693.335938 446.328125 693.601562 441 695.175781 439.96875 Z M 732.605469 452.183594 C 732.394531 453.265625 732.199219 454.394531 732.460938 455.460938 C 732.722656 456.542969 733.558594 457.542969 734.65625 457.640625 C 735.507812 457.707031 736.328125 457.199219 736.855469 456.527344 C 737.378906 455.855469 737.671875 455.035156 737.96875 454.230469 C 738.738281 452.066406 739.492188 449.773438 739.082031 447.527344 C 738.738281 445.671875 736.625 442.574219 734.542969 444.050781 C 733 445.117188 732.933594 450.445312 732.605469 452.183594 Z M 732.605469 452.183594 " fill-opacity="1" fill-rule="nonzero"/><path fill="#231f20" d="M 704.734375 438.082031 C 702.832031 435.917969 700.222656 434.441406 697.402344 433.949219 C 694.566406 433.441406 691.617188 433.933594 689.089844 435.308594 L 687.5 432.410156 C 690.679688 430.671875 694.417969 430.0625 697.976562 430.703125 C 701.550781 431.34375 704.832031 433.195312 707.226562 435.917969 Z M 745.691406 439.949219 C 743.214844 437.292969 739.871094 435.554688 736.28125 435.03125 C 732.6875 434.507812 728.984375 435.230469 725.867188 437.066406 L 727.539062 439.917969 C 730.03125 438.457031 732.96875 437.882812 735.804688 438.292969 C 738.65625 438.703125 741.296875 440.097656 743.265625 442.195312 Z M 745.691406 439.949219 " fill-opacity="1" fill-rule="nonzero"/><path fill="#231f20" d="M 715.078125 483.515625 C 711.898438 484.695312 708.242188 483.582031 705.554688 481.515625 C 702.863281 479.449219 701.503906 475.710938 699.648438 472.875 C 706.964844 475.382812 714.867188 476.136719 722.507812 475.089844 C 720.882812 478.710938 718.800781 482.140625 715.078125 483.515625 Z M 715.078125 483.515625 " fill-opacity="1" fill-rule="nonzero"/><path fill="#231f20" d="M 649.921875 454.265625 C 644.789062 452.921875 640.820312 448.296875 640.261719 443.015625 L 643.558594 442.671875 C 643.96875 446.542969 647 450.082031 650.773438 451.066406 Z M 649.921875 454.265625 " fill-opacity="1" fill-rule="nonzero"/><path fill="#f3bfa4" d="M 686.664062 771.832031 C 674.382812 769.320312 661.152344 766.863281 648.871094 764.335938 C 656.070312 767.371094 663.054688 772.714844 670.25 775.75 C 672.039062 776.503906 673.988281 777.390625 674.84375 779.144531 C 675.710938 780.882812 674.5625 783.601562 672.628906 783.390625 C 662.675781 782.324219 651.984375 780.765625 642.230469 778.570312 C 642.230469 779.832031 653.394531 788.03125 657.839844 790.652344 C 659.101562 794.457031 657.429688 795.851562 653.511719 795.390625 C 646.507812 794.984375 632.917969 788.507812 625.832031 786.964844 C 631.734375 790.144531 630.917969 794.539062 627.03125 795.390625 C 618.503906 794.144531 610.257812 790.835938 602.582031 786.933594 C 601.007812 786.128906 598.910156 785.570312 596.941406 785.03125 L 639.933594 713.605469 C 642.804688 713.640625 645.902344 715.589844 647.984375 717.609375 C 655.035156 719.019531 662.070312 720.445312 669.121094 721.855469 C 674.335938 722.902344 680.515625 724.839844 681.761719 729.988281 C 682.679688 733.757812 680.253906 737.710938 676.992188 739.792969 C 673.710938 741.875 669.757812 742.515625 665.921875 743.105469 C 658.890625 741.628906 654.871094 745.152344 656.773438 746.464844 C 665.003906 752.136719 687.46875 758.796875 696.175781 764.15625 C 699.847656 770.503906 694.074219 772.914062 686.664062 771.832031 Z M 686.664062 771.832031 " fill-opacity="1" fill-rule="nonzero"/></svg>